<?xml version="1.0" encoding="utf-8"?>
<!-- Generator: Adobe Illustrator 16.0.0, SVG Export Plug-In . SVG Version: 6.00 Build 0)  -->
<!DOCTYPE svg PUBLIC "-//W3C//DTD SVG 1.1//EN" "http://www.w3.org/Graphics/SVG/1.1/DTD/svg11.dtd" [
	<!ENTITY ns_extend "http://ns.adobe.com/Extensibility/1.0/">
	<!ENTITY ns_ai "http://ns.adobe.com/AdobeIllustrator/10.0/">
	<!ENTITY ns_graphs "http://ns.adobe.com/Graphs/1.0/">
	<!ENTITY ns_vars "http://ns.adobe.com/Variables/1.0/">
	<!ENTITY ns_imrep "http://ns.adobe.com/ImageReplacement/1.0/">
	<!ENTITY ns_sfw "http://ns.adobe.com/SaveForWeb/1.0/">
	<!ENTITY ns_custom "http://ns.adobe.com/GenericCustomNamespace/1.0/">
	<!ENTITY ns_adobe_xpath "http://ns.adobe.com/XPath/1.0/">
]>
<svg version="1.1" id="Layer_1" xmlns:x="&ns_extend;" xmlns:i="&ns_ai;" xmlns:graph="&ns_graphs;"
	 xmlns="http://www.w3.org/2000/svg" xmlns:xlink="http://www.w3.org/1999/xlink" x="0px" y="0px" width="48px" height="48px"
	 viewBox="0 0 48 48" enable-background="new 0 0 48 48" xml:space="preserve">
<metadata>
	<sfw  xmlns="&ns_sfw;">
		<slices></slices>
		<sliceSourceBounds  width="48" height="48" bottomLeftOrigin="true" y="273.5" x="116.5"></sliceSourceBounds>
	</sfw>
</metadata>
<g id="XMLID_1_">
	<g>
		<path fill="#FFFFFF" d="M40,8v14H26l6.45-6.45C30.28,13.38,27.31,12,24,12c-6.63,0-12,5.37-12,12s5.37,12,12,12
			c5.23,0,9.65-3.34,11.3-8h4.16C37.69,34.9,31.45,40,24,40c-8.84,0-15.98-7.16-15.98-16S15.16,8,24,8c4.42,0,8.41,1.8,11.3,4.7
			L40,8z"/>
	</g>
	<g>
	</g>
</g>
<path fill="none" d="M0,0h48v48H0V0z"/>
</svg>
